<svg id="797cac5f-5794-48eb-88f8-efa079d59a91" data-name="Modo de aislamiento" xmlns="http://www.w3.org/2000/svg" viewBox="0 0 591.29 132.71"><title>Mesa de trabajo 2</title><path d="M45.19,38.55c23,0,39.21,12.63,44,34.45H59.3C57,66.6,52.41,62.5,44.7,62.5c-10,0-16.9,7.88-16.9,23.13s6.89,23.13,16.9,23.13c7.71,0,12.14-3.77,14.6-10.5H89.16c-4.76,21.17-21,34.45-44,34.45-26.9,0-45.93-18-45.93-47.08C-.74,56.76,18.29,38.55,45.19,38.55Z" fill="#fff"/><path d="M132.13,131.4h-28V39.86h28.05V55.12c6.4-9.68,16.41-16.24,28.71-16.24V68.57h-7.71c-13.28,0-21,4.6-21,20.34Z" fill="#fff"/><path d="M215,132.71c-26.91,0-46.26-18-46.26-47.08s19-47.08,46.26-47.08c26.74,0,45.6,17.72,45.6,45.61a70.49,70.49,0,0,1-.49,8.2H196.6c1,12,8.37,17.55,17.39,17.55,7.88,0,12.31-3.94,14.6-8.86h29.86C254,118.93,237.78,132.71,215,132.71ZM196.77,76.77h35.1c0-10-7.87-15.74-17.22-15.74C205.46,61,198.41,66.6,196.77,76.77Z" fill="#fff"/><path d="M310.12,38.55c13.62,0,23.3,6.23,28.22,14.27v-13h28.05V131.4H338.34v-13c-5.09,8-14.77,14.27-28.38,14.27-22.31,0-40.19-18.37-40.19-47.24S287.65,38.55,310.12,38.55ZM318.32,63c-10.49,0-20,7.88-20,22.48s9.52,22.8,20,22.8c10.67,0,20-8,20-22.64S329,63,318.32,63Z" fill="#fff"/><path d="M391.16,63.16H380V39.86h11.16V17.55h28V39.86h18.37v23.3H419.21V99.9c0,5.42,2.3,7.71,8.53,7.71h10V131.4H423.48c-19,0-32.32-8-32.32-31.82Z" fill="#00e483"/><path d="M543.39,132.71c-26.9,0-47.24-18-47.24-47.08S517,38.55,543.72,38.55c26.9,0,47.57,18.05,47.57,47.08S570.29,132.71,543.39,132.71Zm0-24.27c10,0,19.36-7.39,19.36-22.81,0-15.58-9.19-22.8-19-22.8-10.17,0-19,7.22-19,22.8C524.69,101.05,533.22,108.44,543.39,108.44Z" fill="#fff"/><circle cx="467.36" cy="16.11" r="16.11" fill="#00e483"/><rect x="453.33" y="39.86" width="28.05" height="91.54" fill="#fff"/></svg>