<svg id="a41d0001-9d26-4b2e-8d81-d670ff4d8d78" data-name="Capa 1" xmlns="http://www.w3.org/2000/svg" viewBox="0 0 592.03 135.34"><title>creatio_logo</title><path d="M45.93,39.86c23,0,39.21,12.64,44,34.45H60c-2.3-6.39-6.89-10.5-14.6-10.5-10,0-16.9,7.88-16.9,23.14s6.89,23.13,16.9,23.13c7.71,0,12.14-3.78,14.6-10.5H89.9c-4.76,21.16-21,34.45-44,34.45C19,134,0,116,0,87S19,39.86,45.93,39.86Z"/><path d="M132.87,132.71H104.82V41.18h28.05V56.43c6.4-9.68,16.41-16.24,28.71-16.24V69.88h-7.71c-13.28,0-21,4.6-21,20.35Z"/><path d="M215.72,134c-26.91,0-46.26-18-46.26-47.08s19-47.09,46.26-47.09c26.74,0,45.6,17.72,45.6,45.61a70.49,70.49,0,0,1-.49,8.2H197.34c1,12,8.37,17.55,17.39,17.55,7.88,0,12.31-3.93,14.6-8.85h29.86C254.76,120.25,238.52,134,215.72,134ZM197.51,78.09h35.11c0-10-7.88-15.75-17.23-15.75C206.2,62.34,199.15,67.92,197.51,78.09Z"/><path d="M310.86,39.86c13.62,0,23.3,6.24,28.22,14.28v-13h28.05v91.53H339.08v-13C334,127.79,324.31,134,310.7,134c-22.31,0-40.19-18.38-40.19-47.25S288.39,39.86,310.86,39.86Zm8.21,24.45c-10.5,0-20,7.87-20,22.47s9.52,22.8,20,22.8c10.66,0,20-8,20-22.63S329.73,64.31,319.07,64.31Z"/><path d="M391.9,64.47H380.74V41.18H391.9V18.87H420V41.18h18.37V64.47H420v36.75c0,5.41,2.3,7.71,8.53,7.71h10v23.78H424.22c-19,0-32.32-8-32.32-31.82Z" fill="#00e483"/><path d="M544.13,134c-26.9,0-47.24-18-47.24-47.08s20.83-47.09,47.57-47.09c26.9,0,47.57,18,47.57,47.09S571,134,544.13,134Zm0-24.28c10,0,19.36-7.38,19.36-22.8,0-15.59-9.19-22.81-19-22.81-10.17,0-19,7.22-19,22.81C525.43,102.37,534,109.75,544.13,109.75Z"/><circle cx="468.1" cy="17.42" r="16.11" transform="translate(342.86 468.79) rotate(-76.62)" fill="#00e483"/><rect x="454.07" y="41.18" width="28.05" height="91.54"/></svg>